<svg width="16" height="13" viewBox="0 0 16 13" fill="none" xmlns="http://www.w3.org/2000/svg">
<path d="M14.5 0.981934H1.50001C0.672854 0.981934 0 1.65443 0 2.48114V11.4763C0 12.3031 0.672854 12.9756 1.50001 12.9756H14.5C15.3271 12.9756 16 12.3031 16 11.4763V2.48114C16 1.65443 15.3271 0.981934 14.5 0.981934ZM14.5 1.9814C14.5679 1.9814 14.6325 1.99548 14.6916 2.02008L8 7.81667L1.30833 2.02008C1.36742 1.99552 1.43204 1.9814 1.49998 1.9814H14.5ZM14.5 11.9761H1.50001C1.22414 11.9761 0.999996 11.7521 0.999996 11.4763V3.07603L7.67236 8.85566C7.76661 8.93714 7.8833 8.97767 8 8.97767C8.1167 8.97767 8.23339 8.93718 8.32764 8.85566L15 3.07603V11.4763C15 11.7521 14.7759 11.9761 14.5 11.9761Z" fill="#757575"/>
</svg>
